name C:\Users\u0101727\Documents\MyRepositories\upper-imu-dc\Results\main_mocap_tracking\Case_10\FLX01_orientations_groundFrame.mot
datacolumns 13
datarows 25
range 3.51000000 3.75000000
endheader 
time	radius_imu_[0][0]	radius_imu_[0][1]	radius_imu_[0][2]	radius_imu_[1][0]	radius_imu_[1][1]	radius_imu_[1][2]	radius_imu_[2][0]	radius_imu_[2][1]	radius_imu_[2][2]	radius_imu_x	radius_imu_y	radius_imu_z	
          3.51000000	          0.97054248	         -0.08048598	         -0.22708877	         -0.03258514	         -0.97774053	          0.20727198	         -0.23871639	         -0.19376654	         -0.95156136	         -2.92711976	         -0.22908731	          0.08273953	
          3.52000000	          0.97101356	         -0.08150705	         -0.22469817	         -0.03406186	         -0.97765471	          0.20743926	         -0.23658498	         -0.19377270	         -0.95209227	         -2.92706798	         -0.22663327	          0.08374386	
          3.53000000	          0.97133494	         -0.08252079	         -0.22293218	         -0.03536717	         -0.97754234	          0.20775016	         -0.23506936	         -0.19391051	         -0.95243956	         -2.92683221	         -0.22482132	          0.08475255	
          3.54000000	          0.97151123	         -0.08351331	         -0.22179145	         -0.03649004	         -0.97740634	          0.20819537	         -0.23416746	         -0.19417097	         -0.95260865	         -2.92642307	         -0.22365130	          0.08575146	
          3.55000000	          0.97155300	         -0.08447444	         -0.22124386	         -0.03743013	         -0.97724995	          0.20876189	         -0.23384560	         -0.19454205	         -0.95261200	         -2.92585629	         -0.22308976	          0.08672973	
          3.56000000	          0.97147615	         -0.08539805	         -0.22122674	         -0.03819762	         -0.97707648	          0.20943373	         -0.23404068	         -0.19500954	         -0.95246850	         -2.92515184	         -0.22307220	          0.08768007	
          3.57000000	          0.97129929	         -0.08628185	         -0.22165995	         -0.03881016	         -0.97688914	          0.21019368	         -0.23467310	         -0.19555832	         -0.95220034	         -2.92433163	         -0.22351644	          0.08859882	
          3.58000000	          0.97103997	         -0.08712655	         -0.22246425	         -0.03928791	         -0.97669075	          0.21102520	         -0.23566467	         -0.19617375	         -0.95182878	         -2.92341664	         -0.22434133	          0.08948537	
          3.59000000	          0.97071155	         -0.08793434	         -0.22357693	         -0.03964864	         -0.97648373	          0.21191390	         -0.23695374	         -0.19684275	         -0.95137051	         -2.92242471	         -0.22548276	          0.09034093	
          3.60000000	          0.97032160	         -0.08870725	         -0.22496001	         -0.03990424	         -0.97627013	          0.21284802	         -0.23850290	         -0.19755417	         -0.95083580	         -2.92136964	         -0.22690200	          0.09116704	
          3.61000000	          0.96987196	         -0.08944593	         -0.22660055	         -0.04005943	         -0.97605173	          0.21381827	         -0.24029903	         -0.19829886	         -0.95022836	         -2.92026129	         -0.22858601	          0.09196433	
          3.62000000	          0.96936025	         -0.09014918	         -0.22850347	         -0.04011282	         -0.97583014	          0.21481737	         -0.24234618	         -0.19906950	         -0.94954708	         -2.91910645	         -0.23054020	          0.09273191	
          3.63000000	          0.96878336	         -0.09081422	         -0.23067636	         -0.04006060	         -0.97560684	          0.21583892	         -0.24465068	         -0.19986012	         -0.94878974	         -2.91791072	         -0.23277273	          0.09346735	
          3.64000000	          0.96814280	         -0.09143707	         -0.23310681	         -0.03990221	         -0.97538342	          0.21687553	         -0.24719898	         -0.20066501	         -0.94795898	         -2.91668180	         -0.23527129	          0.09416652	
          3.65000000	          0.96745087	         -0.09201293	         -0.23573807	         -0.03964675	         -0.97516180	          0.21791651	         -0.24993390	         -0.20147727	         -0.94706914	         -2.91543341	         -0.23797797	          0.09482341	
          3.66000000	          0.96673568	         -0.09253669	         -0.23845145	         -0.03931804	         -0.97494448	          0.21894599	         -0.25273746	         -0.20228746	         -0.94615198	         -2.91418857	         -0.24077099	          0.09543003	
          3.67000000	          0.96604326	         -0.09300358	         -0.24106172	         -0.03895695	         -0.97473466	          0.21994247	         -0.25542665	         -0.20308291	         -0.94525899	         -2.91298080	         -0.24345968	          0.09597690	
          3.68000000	          0.96543541	         -0.09341039	         -0.24332892	         -0.03862017	         -0.97453604	          0.22088005	         -0.25776529	         -0.20384802	         -0.94445913	         -2.91185243	         -0.24579645	          0.09645443	
          3.69000000	          0.96498202	         -0.09375741	         -0.24498826	         -0.03837486	         -0.97435228	          0.22173183	         -0.25949388	         -0.20456584	         -0.94383036	         -2.91084928	         -0.24750759	          0.09685574	
          3.70000000	          0.96474740	         -0.09405120	         -0.24579833	         -0.03828902	         -0.97418609	          0.22247563	         -0.26037742	         -0.20522140	         -0.94344463	         -2.91001127	         -0.24834321	          0.09718082	
          3.71000000	          0.96477288	         -0.09430771	         -0.24559996	         -0.03841907	         -0.97403793	          0.22310105	         -0.26026382	         -0.20580612	         -0.94334860	         -2.90936057	         -0.24813856	          0.09744163	
          3.72000000	          0.96506201	         -0.09455462	         -0.24436601	         -0.03879870	         -0.97390488	          0.22361562	         -0.25913314	         -0.20632186	         -0.94354719	         -2.90889129	         -0.24686583	          0.09766604	
          3.73000000	          0.96557610	         -0.09483142	         -0.24221850	         -0.03943411	         -0.97378021	          0.22404701	         -0.25711427	         -0.20678277	         -0.94399848	         -2.90856591	         -0.24465179	          0.09789831	
          3.74000000	          0.96624299	         -0.09518653	         -0.23940343	         -0.04030773	         -0.97365395	          0.22443990	         -0.25445976	         -0.20721367	         -0.94462306	         -2.90832074	         -0.24175137	          0.09819517	
          3.75000000	          0.96697528	         -0.09567216	         -0.23623218	         -0.04138859	         -0.97351431	          0.22484857	         -0.25148715	         -0.20764570	         -0.94532401	         -2.90807830	         -0.23848644	          0.09861865	
